<svg viewBox="0 0 64 64" xmlns="http://www.w3.org/2000/svg" role="img" aria-label="Yummy">
  <!-- сюрприз-бокс: спасённая еда со скидкой -->
  <!-- задние отвороты крышки -->
  <path d="M13 27 L20 17 L34 20 L31 27 Z" fill="#F0A968"/>
  <path d="M51 27 L44 17 L30 20 L33 27 Z" fill="#E68A46"/>
  <!-- корпус коробки -->
  <path d="M11 26 H53 L48.5 55 A4 4 0 0 1 44.6 58.4 H19.4 A4 4 0 0 1 15.5 55 Z" fill="#E07A3E"/>
  <!-- передняя тень (объём) -->
  <path d="M32 26 H53 L48.5 55 A4 4 0 0 1 44.6 58.4 H32 Z" fill="#C9662C"/>
  <!-- листок-росток: эко/спасение -->
  <path d="M32 22 C 29 11 21 9 18.5 9 C 18.5 16 23 22 32 22 Z" fill="#4FA65B"/>
  <path d="M32 22 C 35 12 42 10 44.5 10 C 44.5 16.5 40 22 32 22 Z" fill="#63B96E"/>
  <path d="M32 22 V 13" stroke="#3C8A48" stroke-width="2.4" stroke-linecap="round"/>
</svg>
